<?xml version="1.0" standalone="no"?>
<!DOCTYPE svg PUBLIC "-//W3C//DTD SVG 20010904//EN"
 "http://www.w3.org/TR/2001/REC-SVG-20010904/DTD/svg10.dtd">
<svg version="1.0" xmlns="http://www.w3.org/2000/svg"
 width="512.000000pt" height="512.000000pt" viewBox="0 0 512.000000 512.000000"
 preserveAspectRatio="xMidYMid meet">

<g transform="translate(0.000000,512.000000) scale(0.100000,-0.100000)"
fill="#000000" stroke="none">
<path d="M3159 4161 c-63 -20 -157 -80 -224 -143 -167 -156 -306 -392 -570
-968 -355 -776 -520 -1049 -677 -1120 -81 -37 -141 -24 -244 53 -71 54 -123
113 -319 361 -338 430 -524 567 -765 568 -106 0 -162 -13 -267 -62 -89 -42
-89 -41 -84 -125 3 -50 16 -50 78 -2 213 168 413 101 620 -208 95 -142 182
-312 369 -720 273 -593 371 -752 513 -824 87 -45 219 -17 311 66 135 121 201
272 360 823 145 506 228 740 321 907 125 223 289 402 429 466 70 32 189 30
256 -5 103 -54 214 -178 330 -368 32 -52 145 -264 252 -470 220 -425 313 -587
424 -735 245 -326 501 -422 786 -294 58 26 62 30 52 49 -7 14 -17 19 -27 16
-51 -20 -113 -28 -181 -24 -196 12 -363 160 -516 458 -122 238 -172 371 -372
995 -160 497 -193 596 -259 755 -122 299 -239 466 -373 532 -51 25 -173 35
-223 19z m170 -46 c106 -37 203 -144 294 -322 102 -201 142 -308 337 -918 77
-242 150 -464 161 -494 11 -29 18 -56 16 -58 -3 -2 -9 9 -15 24 -6 15 -75 208
-155 428 -162 446 -184 505 -256 664 -151 333 -299 495 -466 509 -213 17 -454
-203 -654 -597 -85 -167 -144 -300 -313 -701 -275 -652 -406 -874 -562 -946
-61 -29 -107 -30 -161 -5 -105 49 -178 134 -397 461 -170 253 -262 382 -322
451 -17 19 -5 8 27 -24 33 -33 146 -168 251 -301 246 -307 319 -376 439 -411
131 -38 252 44 406 276 96 145 202 352 411 804 317 687 455 920 627 1058 132
106 233 137 332 102z m7 -238 c100 -51 201 -181 304 -392 76 -156 113 -250
285 -725 78 -217 159 -435 179 -484 20 -49 34 -91 32 -93 -4 -4 -11 12 -202
482 -238 582 -354 807 -488 941 -34 34 -86 74 -116 90 -48 25 -66 29 -140 29
-79 0 -92 -3 -160 -37 -165 -82 -330 -279 -473 -564 -62 -125 -146 -328 -291
-710 -178 -471 -235 -599 -330 -743 -73 -111 -126 -162 -200 -197 -96 -45
-170 -23 -271 80 -80 81 -158 200 -340 516 -81 140 -167 286 -192 323 -24 38
-39 66 -33 62 5 -3 87 -122 181 -263 252 -377 311 -449 423 -516 51 -31 69
-36 120 -36 119 0 211 67 325 235 98 143 193 337 369 755 163 387 226 529 307
690 157 312 333 509 508 572 66 24 137 18 203 -15z m-25 -222 c169 -86 295
-307 597 -1045 94 -228 188 -455 211 -505 23 -49 35 -82 27 -71 -8 10 -99 201
-201 425 -223 484 -292 619 -391 768 -237 353 -469 383 -745 96 -96 -100 -154
-179 -227 -308 -98 -172 -162 -337 -352 -901 -71 -209 -149 -427 -175 -485
-119 -263 -230 -386 -368 -405 -38 -6 -56 -2 -101 20 -103 51 -194 177 -370
514 -182 349 -268 518 -257 507 5 -5 71 -118 147 -250 218 -382 327 -525 441
-584 93 -47 214 -18 314 76 136 127 243 347 494 1012 195 518 301 734 455 921
181 221 347 292 501 215z m-31 -212 c97 -48 204 -171 312 -358 67 -118 111
-207 263 -540 75 -165 172 -371 215 -457 43 -87 77 -158 75 -158 -6 0 -61 103
-225 420 -278 540 -355 665 -490 802 -110 112 -180 148 -287 148 -120 0 -218
-46 -336 -159 -111 -105 -207 -241 -302 -426 -62 -121 -63 -120 -14 5 49 124
136 292 204 393 109 163 263 306 370 345 17 6 59 11 96 11 52 1 76 -5 119 -26z
m-1071 -1599 c-95 -329 -135 -447 -196 -570 -80 -164 -168 -250 -279 -275
-173 -39 -296 115 -565 702 -71 155 -128 284 -126 285 1 1 56 -101 122 -228
230 -442 348 -578 501 -578 218 0 372 214 559 778 31 95 59 171 61 169 2 -2
-32 -129 -77 -283z"/>
</g>
</svg>
